<svg xmlns="http://www.w3.org/2000/svg" xmlns:xlink="http://www.w3.org/1999/xlink" viewBox="0,0,256,256" width="165" height="53"><g fill="none" fill-rule="nonzero" stroke="none" stroke-width="1" stroke-linecap="butt" stroke-linejoin="miter" stroke-miterlimit="10" stroke-dasharray="" stroke-dashoffset="0" font-family="none" font-weight="none" font-size="none" text-anchor="none" style="mix-blend-mode: normal"><g transform="scale(2.13333,2.13333)"><path d="M94,60c-1.145,-0.011 -2.495,0.558 -4,1.539v-11.539l-10,-16h-40l-10,16v11.539c-1.505,-0.981 -2.855,-1.55 -4,-1.539c-3.084,1.544 -4.537,6 -4.537,6c0,0 0.552,9.449 1.591,13.031c1.763,2.72 5.055,4.093 6.946,4.653v8.316l14,23h32l14,-23v-8.317c1.89,-0.56 5.183,-1.932 6.946,-4.653c1.038,-3.581 1.553,-13.03 1.553,-13.03c0,0 -1.415,-4.456 -4.499,-6z" fill="#a91414" opacity="0.35"></path><path d="M36,80h-4.582c-0.339,0.031 -5.879,-1.135 -8.364,-4.969c-1.038,-3.582 -2.054,-13.031 -2.054,-13.031c0,0 1.916,-4.456 5,-6c1.632,-0.015 3.672,1.127 6,3l4,-5.184z" fill="#008d00"></path><path d="M84,80h4.582c0.339,0.031 5.879,-1.135 8.364,-4.969c1.038,-3.582 2.054,-13.031 2.054,-13.031c0,0 -1.916,-4.456 -5,-6c-1.632,-0.015 -3.672,1.127 -6,3l-4,-5.184z" fill="#008d00"></path><path d="M80,30h-40l-10,16v42l14,23h32l14,-23v-42z" fill="#44bf00"></path><path d="M46,10c0,0 19.43,-1.656 26,10c0,0 9.052,-5.607 19,2l-5,3c0,0 2,3 12,3c0,0 -2,7 -8,8c0,0 5,1 7,9c0,0 -4,-1 -7,-1c0,4.11 4,10 4,10c0,0 -13,0 -17,-9c0,0 -1,8 -10,10c0,0 2,-6 2,-10c-4,6 -12,12 -18,12c4,-7 4,-13 4,-13c0,0 -4,9 -16,9c0,0 4,-4 3,-9c-4,5 -13,11 -22,11c0,0 6,-5 9,-12c-4,0 -9,2.581 -9,2.581c0,0 -1,-7.581 6,-10.581c0,0 -4,-2 -4,-6c0,0 11,0 13,-4c-1,-1 -3,-3 -3,-8c0,0 9,1 17,1l-3,-8" fill="#a91414" opacity="0.35"></path><path d="M46,7c0,0 19.43,-1.656 26,10c0,0 9.052,-5.607 19,2l-5,3c0,0 2,3 12,3c0,0 -2,7 -8,8c0,0 5,1 7,9c0,0 -4,-1 -7,-1c0,4.11 4,10 4,10c0,0 -13,0 -17,-9c0,0 -1,8 -10,10c0,0 2,-6 2,-10c-4,6 -12,12 -18,12c4,-7 4,-13 4,-13c0,0 -4,9 -16,9c0,0 4,-4 3,-9c-4,5 -13,11 -22,11c0,0 6,-5 9,-12c-4,0 -9,2.581 -9,2.581c0,0 -1,-7.581 6,-10.581c0,0 -4,-2 -4,-6c0,0 11,0 13,-4c-1,-1 -3,-3 -3,-8c0,0 9,1 17,1l-3,-8" fill="#0037ff"></path><path d="M73,63c0,0 5.84,-2.844 9,1c0,0 -3,4 -7,4c-4,0 -7,0 -7,0z" fill="#ffffff"></path><circle cx="74" cy="65" r="3" fill="#008d00"></circle><path d="M65,68c0,0 6,-12 16,-12l4,5c0,0 -8,-2 -17,7z" fill="#0037ff"></path><path d="M47,63c0,0 -5.84,-2.844 -9,1c0,0 3,4 7,4c4,0 7,0 7,0z" fill="#ffffff"></path><circle cx="46" cy="65" r="3" fill="#008d00"></circle><path d="M55,68c0,0 -6,-12 -16,-12l-4,5c0,0 8,-2 17,7z" fill="#0037ff"></path><path d="M74,83h-27.999l-5.001,10l4.001,6h30.001l3.998,-6z" fill="#ffffff"></path><path d="M75.002,99l-1.001,-5.993l-3.009,-2.007l2.988,-2.005l0.02,-5.995l5,10z" fill="#006c00"></path><path d="M45.001,99l1.017,-6l2.985,-2l-2.998,-2l-0.004,-6l-5.001,10z" fill="#006c00"></path><g fill="#008d00"><path d="M63,107h-6l-4,-3h14z"></path></g></g></g></svg>