<?xml version="1.0" encoding="UTF-8"?>
<svg version="1.1" xmlns="http://www.w3.org/2000/svg" width="100" height="100">
<path d="M0 0 C165 0 330 0 500 0 C500 165 500 330 500 500 C335 500 170 500 0 500 C0 335 0 170 0 0 Z " fill="#000000" transform="translate(0,0)"/>
<path d="M0 0 C6.83333578 6.83333578 11.82424896 13.44556281 13 23.1875 C12.44837282 27.44290966 11.4157168 29.3526311 8.5625 32.5625 C3.87083544 35.98328477 -0.63578825 37.13765329 -6.40234375 36.91015625 C-9.15267631 36.44032977 -11.07989586 35.00325808 -13.4375 33.5625 C-15.99461372 34.25181667 -15.99461372 34.25181667 -18.4375 35.5625 C-20.09829223 35.92396654 -21.76471001 36.2613978 -23.4375 36.5625 C-23.24414062 37.67882812 -23.05078125 38.79515625 -22.8515625 39.9453125 C-20.75076639 52.44336062 -19.43727545 64.93158468 -18.4375 77.5625 C-17.53257812 77.14677734 -17.53257812 77.14677734 -16.609375 76.72265625 C-15.41054687 76.17931641 -15.41054687 76.17931641 -14.1875 75.625 C-13.39859375 75.26535156 -12.6096875 74.90570313 -11.796875 74.53515625 C-4.47859864 71.5181847 5.75592826 71.06470144 13.3203125 73.421875 C15.4375 74.5 15.4375 74.5 18.5625 76.5625 C19.2225 76.8925 19.8825 77.2225 20.5625 77.5625 C21.036875 76.86125 21.51125 76.16 22 75.4375 C28.89217949 67.70481082 37.85786715 63.62435267 48.125 63 C57.00980484 63.20582559 67.75142283 66.77655945 74.5625 72.5625 C74.2325 73.5525 73.9025 74.5425 73.5625 75.5625 C69.69002084 74.95436699 66.69301068 73.72329727 63.1875 72 C54.78922385 68.43772257 45.2378249 67.70956944 36.625 71.125 C32.0353065 73.54200589 28.26686865 76.96916148 24.5625 80.5625 C25.07941406 81.31015625 25.59632813 82.0578125 26.12890625 82.828125 C26.78761719 83.81296875 27.44632812 84.7978125 28.125 85.8125 C28.78628906 86.78703125 29.44757813 87.7615625 30.12890625 88.765625 C31.5625 91.5625 31.5625 91.5625 31.27734375 93.921875 C31.04144531 94.46328125 30.80554688 95.0046875 30.5625 95.5625 C29.5725 95.5625 28.5825 95.5625 27.5625 95.5625 C26.01953125 93.5859375 26.01953125 93.5859375 24.375 90.9375 C20.26034746 84.82182696 16.02995608 80.97516729 9.1875 78.1875 C0.41261458 76.67458872 -6.49098979 77.31950097 -14.4375 81.5625 C-17.00338859 83.60205247 -18.24937699 85.23532955 -19.875 88.0625 C-21.71901008 91.01291612 -23.50210927 92.70103271 -26.4375 94.5625 C-28.75 94.3125 -28.75 94.3125 -30.4375 93.5625 C-29.27171957 90.70103895 -28.24782497 89.39922452 -25.85546875 87.33984375 C-23.16823793 84.77813162 -23.16823793 84.77813162 -23.0625 81.453125 C-23.248125 79.65101563 -23.248125 79.65101563 -23.4375 77.8125 C-23.49929443 77.1407373 -23.56108887 76.46897461 -23.62475586 75.77685547 C-23.85968078 73.3668084 -24.14429499 70.96615629 -24.4375 68.5625 C-24.55754395 67.5631543 -24.67758789 66.56380859 -24.80126953 65.53417969 C-25.58543303 59.02417955 -25.58543303 59.02417955 -26.41992188 52.52050781 C-27.24023694 46.15801489 -27.62155696 39.97692938 -27.4375 33.5625 C-25.55383147 32.49899337 -23.6549671 31.46236771 -21.75 30.4375 C-20.16638672 29.56738281 -20.16638672 29.56738281 -18.55078125 28.6796875 C-15.4375 27.5625 -15.4375 27.5625 -12.6640625 28.3125 C-11.270705 29.09473579 -9.88186074 29.88512925 -8.5 30.6875 C-5.58491948 31.92420083 -3.58265623 31.93991875 -0.4375 31.5625 C2.6228333 29.7969231 5.06837755 28.05662245 7.5625 25.5625 C7.70139143 17.9234711 4.25131546 12.43320696 -0.4375 6.5625 C-4.80649338 3.30899429 -9.10936525 2.83730964 -14.4375 3.5625 C-25.44192131 6.177412 -34.54480931 13.9361018 -40.54736328 23.29248047 C-46.90372729 33.79960715 -50.85198506 44.86056075 -54.47802734 56.53613281 C-55.54472151 59.90069793 -56.66735914 63.24327206 -57.80078125 66.5859375 C-58.20683594 67.78492676 -58.61289063 68.98391602 -59.03125 70.21923828 C-59.82497277 72.55938485 -60.62045656 74.8989351 -61.41796875 77.23779297 C-66.79019432 91.43156923 -66.79019432 91.43156923 -65.3359375 105.93359375 C-62.87402984 109.34277864 -60.02958683 111.76992917 -56.75 114.375 C-56.09370605 114.89763428 -55.43741211 115.42026855 -54.76123047 115.95874023 C-35.80755179 130.5566185 -11.09585024 137.07991203 12.671875 134.18359375 C16.52103376 133.56323441 20.30148808 132.94697915 24.03515625 131.80859375 C29.60099649 130.13788699 29.60099649 130.13788699 32.40234375 131.375 C33.69475094 132.24935582 34.97517756 133.14156484 36.24609375 134.046875 C48.66127388 142.17012945 64.3893053 142.36952882 78.5625 139.5625 C78.2325 141.2125 77.9025 142.8625 77.5625 144.5625 C66.92680757 148.10773081 51.27920518 146.91465558 40.91015625 142.796875 C38.5625 141.5625 38.5625 141.5625 36.55859375 140.078125 C31.72913181 136.56235232 28.40660466 136.41856413 22.66430664 137.29394531 C20.91769321 137.60009844 19.1720834 137.91202893 17.42749023 138.22949219 C-5.61525076 142.41560783 -30.5813751 138.29927847 -50.4375 125.5625 C-69.36595875 111.77712374 -69.36595875 111.77712374 -71.4375 105.5625 C-72.71740559 93.80429297 -69.62557153 84.25230345 -65.8125 73.3125 C-65.28321787 71.74674766 -64.75586604 70.18034145 -64.23046875 68.61328125 C-63.18019553 65.48976541 -62.11610478 62.37148904 -61.04125977 59.25634766 C-59.94771626 56.07741988 -58.88537786 52.89037393 -57.84741211 49.69287109 C-52.79257005 34.13894761 -52.79257005 34.13894761 -49.25 27.6875 C-48.87617188 26.9968042 -48.50234375 26.3061084 -48.1171875 25.59448242 C-42.43418588 15.54791377 -34.61837796 7.15315553 -24.4375 1.5625 C-23.385625 0.94375 -22.33375 0.325 -21.25 -0.3125 C-14.34159979 -2.35104433 -6.71908074 -2.8097974 0 0 Z " fill="#F13320" transform="translate(244.4375,145.4375)"/>
<path d="M0 0 C10.30769231 0 10.30769231 0 14 3 C15.6196057 6.2392114 15.22623755 9.75704381 15.25 13.3125 C15.270625 14.07240234 15.29125 14.83230469 15.3125 15.61523438 C15.34464805 20.24053535 14.99608665 23.24034757 12 27 C10 28 10 28 0 28 C0 18.76 0 9.52 0 0 Z " fill="#F3F3F3" transform="translate(260,368)"/>
<path d="M0 0 C3.16065986 0.77044876 4.18131789 1.80741427 6.03515625 4.49609375 C6.57372927 7.67553432 6.50231349 10.78029124 6.41015625 13.99609375 C6.40886719 14.85074219 6.40757812 15.70539063 6.40625 16.5859375 C6.347447 20.77401787 6.28861608 23.84829943 4.03515625 27.49609375 C0.92595016 29.0506968 -2.59567403 29.22330068 -5.96484375 28.49609375 C-8.68450712 25.56665033 -9.3473274 23.57640014 -9.36328125 19.6171875 C-9.36714844 18.69615234 -9.37101562 17.77511719 -9.375 16.82617188 C-9.35759766 15.3943457 -9.35759766 15.3943457 -9.33984375 13.93359375 C-9.35144531 12.97517578 -9.36304688 12.01675781 -9.375 11.02929688 C-9.37113281 10.10955078 -9.36726563 9.18980469 -9.36328125 8.2421875 C-9.35989746 7.40357178 -9.35651367 6.56495605 -9.35302734 5.70092773 C-8.40903134 0.33914918 -4.92603805 0.14237104 0 0 Z " fill="#F3F3F3" transform="translate(309.96484375,367.50390625)"/>
<path d="M0 0 C1.65 0 3.3 0 5 0 C6.65 4.29 8.3 8.58 10 13 C10.33 8.71 10.66 4.42 11 0 C12.65 0 14.3 0 16 0 C16 9.24 16 18.48 16 28 C14.02 28 12.04 28 10 28 C8.35 23.05 6.7 18.1 5 13 C4.67 17.95 4.34 22.9 4 28 C2.68 28 1.36 28 0 28 C0 18.76 0 9.52 0 0 Z " fill="#F1F1F1" transform="translate(301,321)"/>
<path d="M0 0 C1.65 0 3.3 0 5 0 C5 3.96 5 7.92 5 12 C6.65 12 8.3 12 10 12 C10 8.04 10 4.08 10 0 C11.65 0 13.3 0 15 0 C15 9.24 15 18.48 15 28 C13.35 28 11.7 28 10 28 C10 24.04 10 20.08 10 16 C8.35 16 6.7 16 5 16 C5 19.96 5 23.92 5 28 C3.35 28 1.7 28 0 28 C0 18.76 0 9.52 0 0 Z " fill="#ECECEC" transform="translate(135,321)"/>
<path d="M0 0 C1.65 0 3.3 0 5 0 C5.33 2.97 5.66 5.94 6 9 C7.65 6.03 9.3 3.06 11 0 C12.65 0 14.3 0 16 0 C15.03459587 3.19325981 14.26100869 5.66698891 12.1875 8.3125 C10.7873762 11.48120123 11.07234123 12.12725273 12.125 15.3125 C12.73316867 16.88162782 13.35860213 18.44415938 14 20 C14.56604536 21.51951733 15.128807 23.04026401 15.6875 24.5625 C16.120625 25.696875 16.55375 26.83125 17 28 C15.35 28 13.7 28 12 28 C10.35 24.7 8.7 21.4 7 18 C6.67 18 6.34 18 6 18 C5.67 21.3 5.34 24.6 5 28 C3.35 28 1.7 28 0 28 C0 18.76 0 9.52 0 0 Z " fill="#ECECEC" transform="translate(210,321)"/>
<path d="M0 0 C1.32 0 2.64 0 4 0 C4.33 7.59 4.66 15.18 5 23 C6.32 23 7.64 23 9 23 C9.33 15.41 9.66 7.82 10 0 C11.65 0 13.3 0 15 0 C15.1164862 3.72890255 15.18734576 7.45733514 15.25 11.1875 C15.30027344 12.77014648 15.30027344 12.77014648 15.3515625 14.38476562 C15.44993688 22.1809353 15.44993688 22.1809353 13.23828125 26.20703125 C10.86029702 28.11190867 9.93515331 28.63861981 6.9375 28.5 C3 28 3 28 1.2722168 26.82885742 C-0.52696634 24.24246692 -0.340625 22.36770842 -0.29296875 19.23828125 C-0.28330078 18.12001953 -0.27363281 17.00175781 -0.26367188 15.84960938 C-0.23853516 14.68236328 -0.21339844 13.51511719 -0.1875 12.3125 C-0.17396484 11.13365234 -0.16042969 9.95480469 -0.14648438 8.74023438 C-0.11109326 5.82636589 -0.06171809 2.91341055 0 0 Z " fill="#F2F2F2" transform="translate(234,368)"/>
<path d="M0 0 C1.32 0 2.64 0 4 0 C4.33 7.92 4.66 15.84 5 24 C6.32 23.67 7.64 23.34 9 23 C9.33 15.41 9.66 7.82 10 0 C11.65 0 13.3 0 15 0 C15.1164862 3.72890255 15.18734576 7.45733514 15.25 11.1875 C15.30027344 12.77014648 15.30027344 12.77014648 15.3515625 14.38476562 C15.45014671 22.19756455 15.45014671 22.19756455 13.203125 26.203125 C11 28 11 28 7.5 28.5625 C3.43002169 27.90839634 2.48910281 27.19450566 0 24 C-0.45410156 21.34277344 -0.45410156 21.34277344 -0.390625 18.359375 C-0.37773437 17.28945313 -0.36484375 16.21953125 -0.3515625 15.1171875 C-0.31804687 14.00601562 -0.28453125 12.89484375 -0.25 11.75 C-0.23195312 10.62335938 -0.21390625 9.49671875 -0.1953125 8.3359375 C-0.14820222 5.55643104 -0.08243361 2.7786466 0 0 Z " fill="#F4F4F4" transform="translate(161,321)"/>
<path d="M0 0 C2.4375 1.6875 2.4375 1.6875 4 4 C4.25 6.75 4.25 6.75 4 9 C2.35 9 0.7 9 -1 9 C-1.33 7.68 -1.66 6.36 -2 5 C-3.32 4.67 -4.64 4.34 -6 4 C-4.86512507 9.29608301 -2.68026605 11.51546992 1.44140625 14.703125 C3.77480549 16.64470031 3.98291277 17.84279749 4.3125 20.875 C4 24 4 24 2.4375 26.375 C-0.93510779 28.62340519 -3.02512383 28.56783945 -7 28 C-9.4375 26.25 -9.4375 26.25 -11 24 C-11 22.68 -11 21.36 -11 20 C-9.35 20 -7.7 20 -6 20 C-5.67 20.99 -5.34 21.98 -5 23 C-4.01 23 -3.02 23 -2 23 C-2.08451643 20.12644151 -2.54522068 18.45701411 -4.58984375 16.40234375 C-5.8447597 15.3578636 -7.11675301 14.33350534 -8.40625 13.33203125 C-10.75917975 11.36548947 -10.97933618 10.19010713 -11.3125 7.125 C-11 4 -11 4 -9.4375 1.625 C-6.06489221 -0.62340519 -3.97487617 -0.56783945 0 0 Z " fill="#EAEAEA" transform="translate(362,321)"/>
<path d="M0 0 C2.4375 1.6875 2.4375 1.6875 4 4 C4.25 6.75 4.25 6.75 4 9 C2.35 9 0.7 9 -1 9 C-1 7.35 -1 5.7 -1 4 C-2.32 4.33 -3.64 4.66 -5 5 C-4.67087471 8.06661186 -4.43870606 9.58726385 -2.15234375 11.73828125 C-1.42144531 12.25777344 -0.69054687 12.77726562 0.0625 13.3125 C3.81732017 16.38768426 3.81732017 16.38768426 4.6328125 19.12109375 C4.70701832 22.00982013 4.29495227 24.41009545 3 27 C-0.25183254 28.62591627 -3.44587527 28.54052314 -7 28 C-9 26.8125 -9 26.8125 -10 25 C-10.1875 22.3125 -10.1875 22.3125 -10 20 C-8.68 20 -7.36 20 -6 20 C-5.67 20.99 -5.34 21.98 -5 23 C-3.68 23 -2.36 23 -1 23 C-1.32912529 19.93338814 -1.56129394 18.41273615 -3.84765625 16.26171875 C-4.57855469 15.74222656 -5.30945313 15.22273438 -6.0625 14.6875 C-9.81732017 11.61231574 -9.81732017 11.61231574 -10.6328125 8.87890625 C-10.70771968 5.96287682 -10.30996804 3.58346926 -8.9375 1 C-5.82090489 -0.60856522 -3.43737531 -0.42213381 0 0 Z " fill="#F2F2F2" transform="translate(194,368)"/>
<path d="M0 0 C4.62 0 9.24 0 14 0 C14 1.32 14 2.64 14 4 C10.7 4 7.4 4 4 4 C4 6.64 4 9.28 4 12 C5.98 12 7.96 12 10 12 C10 13.32 10 14.64 10 16 C8.02 16 6.04 16 4 16 C4 18.64 4 21.28 4 24 C7.3 24 10.6 24 14 24 C14 25.32 14 26.64 14 28 C9.38 28 4.76 28 0 28 C0 18.76 0 9.52 0 0 Z " fill="#FAFAFA" transform="translate(328,321)"/>
<path d="M0 0 C4.62 0 9.24 0 14 0 C14 1.32 14 2.64 14 4 C11.03 4 8.06 4 5 4 C5 6.64 5 9.28 5 12 C6.98 12 8.96 12 11 12 C11 13.32 11 14.64 11 16 C9.02 16 7.04 16 5 16 C5 19.96 5 23.92 5 28 C3.35 28 1.7 28 0 28 C0 18.76 0 9.52 0 0 Z " fill="#EFEFEF" transform="translate(236,321)"/>
<path d="M0 0 C3.39003439 1.53377426 6.12028951 3.54626128 9.0625 5.8125 C17.13402961 11.73448777 25.16934583 15.22725908 35 17 C35.5625 18.9375 35.5625 18.9375 36 21 C35.505 21.495 35.505 21.495 35 22 C21.78385024 21.56668361 10.50609846 14.96749863 0.8125 6.3125 C-1 4 -1 4 -0.8125 1.6875 C-0.4103125 0.8521875 -0.4103125 0.8521875 0 0 Z " fill="#EC311F" transform="translate(205,249)"/>
<path d="M0 0 C4.95 0 9.9 0 15 0 C15 1.32 15 2.64 15 4 C13.35 4 11.7 4 10 4 C10 11.92 10 19.84 10 28 C8.35 28 6.7 28 5 28 C5 20.08 5 12.16 5 4 C3.35 4 1.7 4 0 4 C0 2.68 0 1.36 0 0 Z " fill="#F2F2F2" transform="translate(208,368)"/>
<path d="M0 0 C4.95 0 9.9 0 15 0 C15 1.32 15 2.64 15 4 C13.35 4 11.7 4 10 4 C10 11.92 10 19.84 10 28 C8.35 28 6.7 28 5 28 C5 20.08 5 12.16 5 4 C3.35 4 1.7 4 0 4 C0 2.68 0 1.36 0 0 Z " fill="#F2F2F2" transform="translate(275,321)"/>
<path d="M0 0 C1.65 0 3.3 0 5 0 C5 7.92 5 15.84 5 24 C7.97 24 10.94 24 14 24 C14 25.32 14 26.64 14 28 C9.38 28 4.76 28 0 28 C0 18.76 0 9.52 0 0 Z " fill="#EEEEEE" transform="translate(187,321)"/>
<path d="M0 0 C1.65 0 3.3 0 5 0 C5 9.24 5 18.48 5 28 C3.35 28 1.7 28 0 28 C0 18.76 0 9.52 0 0 Z " fill="#E9E9E9" transform="translate(285,368)"/>
<path d="M0 0 C1.65 0 3.3 0 5 0 C5 9.24 5 18.48 5 28 C3.35 28 1.7 28 0 28 C0 18.76 0 9.52 0 0 Z " fill="#E7E7E7" transform="translate(260,321)"/>
<path d="M0 0 C2.54171204 1.17309786 4.72883744 2.4908497 7.0625 4.0625 C11.16578222 6.76892019 14.36796248 7.19973911 19.1875 7.5625 C20.81751953 7.68818359 20.81751953 7.68818359 22.48046875 7.81640625 C23.72763672 7.90728516 23.72763672 7.90728516 25 8 C25 9.32 25 10.64 25 12 C18.77540726 14.07486425 13.59589427 13.59931439 7.6875 10.75 C1.10799289 7.11179903 1.10799289 7.11179903 -1 4 C-0.75 1.75 -0.75 1.75 0 0 Z " fill="#ED321F" transform="translate(296,261)"/>
<path d="M0 0 C1.65 0.33 3.3 0.66 5 1 C5 6.94 5 12.88 5 19 C3.35 19.33 1.7 19.66 0 20 C-1.5220959 18.4779041 -1.12959521 17.11789918 -1.1328125 15 C-1.13410156 14.195625 -1.13539063 13.39125 -1.13671875 12.5625 C-1.13285156 11.716875 -1.12898438 10.87125 -1.125 10 C-1.12886719 9.154375 -1.13273437 8.30875 -1.13671875 7.4375 C-1.13542969 6.633125 -1.13414062 5.82875 -1.1328125 5 C-1.13168457 4.2575 -1.13055664 3.515 -1.12939453 2.75 C-1 1 -1 1 0 0 Z " fill="#101010" transform="translate(306,372)"/>
<path d="M0 0 C5 1 5 1 6 2 C6.12658222 4.65822657 6.18520214 7.27887424 6.1875 9.9375 C6.19974609 10.67935547 6.21199219 11.42121094 6.22460938 12.18554688 C6.22988478 14.12513629 6.12188902 16.0642371 6 18 C5.34 18.66 4.68 19.32 4 20 C2.68 20 1.36 20 0 20 C0 13.4 0 6.8 0 0 Z " fill="#131313" transform="translate(264,372)"/>
<path d="M0 0 C0.33 1.32 0.66 2.64 1 4 C-2.77222089 5.75163456 -5.666639 6.22490027 -9.8125 6.125 C-11.27623047 6.09792969 -11.27623047 6.09792969 -12.76953125 6.0703125 C-13.50558594 6.04710937 -14.24164063 6.02390625 -15 6 C-15 4.68 -15 3.36 -15 2 C-13.43883181 1.66048381 -11.87598662 1.32867456 -10.3125 1 C-9.44238281 0.814375 -8.57226562 0.62875 -7.67578125 0.4375 C-5.06287036 0.01027953 -2.64186962 -0.07616201 0 0 Z " fill="#E4301E" transform="translate(260,265)"/>
<path d="M0 0 C0.33 0.99 0.66 1.98 1 3 C-0.56656856 5.43587829 -2.16209761 7.66168691 -3.9375 9.9375 C-4.9580935 11.27945515 -5.97629613 12.62323173 -6.9921875 13.96875 C-7.50104492 14.64164063 -8.00990234 15.31453125 -8.53417969 16.0078125 C-11.35954584 19.84775051 -13.89013218 23.87652874 -16.44140625 27.90234375 C-17.21291016 28.94068359 -17.21291016 28.94068359 -18 30 C-18.66 30 -19.32 30 -20 30 C-18.49839662 25.59419668 -16.1087369 22.08955112 -13.375 18.375 C-12.93494629 17.76833496 -12.49489258 17.16166992 -12.04150391 16.53662109 C-10.69896201 14.68766058 -9.34960965 12.84380495 -8 11 C-7.18686524 9.88066918 -6.37433262 8.7609006 -5.5625 7.640625 C-3.71269113 5.09053134 -1.85850259 2.54376052 0 0 Z " fill="#DA2D1C" transform="translate(329,170)"/>
<path d="M0 0 C2 3 2 3 1.625 5.1875 C1.41875 5.785625 1.2125 6.38375 1 7 C0.34 7 -0.32 7 -1 7 C-1 7.99 -1 8.98 -1 10 C-3.375 9.75 -3.375 9.75 -6 9 C-7.3125 6.9375 -7.3125 6.9375 -8 5 C-2.25 0 -2.25 0 0 0 Z " fill="#A0A0A0" transform="translate(340,136)"/>
<path d="M0 0 C2.125 0.375 2.125 0.375 4 1 C4.625 3.875 4.625 3.875 5 7 C4.34 7.66 3.68 8.32 3 9 C-0.53571429 8.46428571 -0.53571429 8.46428571 -2 7 C-2.1875 4.5625 -2.1875 4.5625 -2 2 C-1.34 1.34 -0.68 0.68 0 0 Z " fill="#B1B1B1" transform="translate(362,216)"/>
<path d="M0 0 C3 1 3 1 4.75 3.4375 C5.36875 4.7059375 5.36875 4.7059375 6 6 C5.67 6.66 5.34 7.32 5 8 C4.34 7.34 3.68 6.68 3 6 C2.67 6.66 2.34 7.32 2 8 C0.68 7.67 -0.64 7.34 -2 7 C-1.34 8.65 -0.68 10.3 0 12 C-4.875 7.375 -4.875 7.375 -6 4 C-3.03 4.495 -3.03 4.495 0 5 C0 3.35 0 1.7 0 0 Z " fill="#C3C3C3" transform="translate(183,116)"/>
<path d="M0 0 C1.98 0 3.96 0 6 0 C6 0.66 6 1.32 6 2 C4.68 2 3.36 2 2 2 C2 2.66 2 3.32 2 4 C2.99 4 3.98 4 5 4 C5 4.66 5 5.32 5 6 C4.01 6 3.02 6 2 6 C2 6.66 2 7.32 2 8 C3.65 8 5.3 8 7 8 C7 8.66 7 9.32 7 10 C4.69 10 2.38 10 0 10 C0 6.7 0 3.4 0 0 Z " fill="#AEAEAE" transform="translate(234,97)"/>
<path d="M0 0 C0.66 0.33 1.32 0.66 2 1 C-0.22716013 3.08551395 -2.45663588 5.16845445 -4.6875 7.25 C-5.31333984 7.83652344 -5.93917969 8.42304688 -6.58398438 9.02734375 C-9.95340349 12.16743067 -13.3511037 15.1813497 -17 18 C-17.66 17.67 -18.32 17.34 -19 17 C-16.5863834 14.72590659 -14.16857862 12.45631451 -11.75 10.1875 C-11.06808594 9.54490234 -10.38617188 8.90230469 -9.68359375 8.24023438 C-9.01972656 7.61826172 -8.35585938 6.99628906 -7.671875 6.35546875 C-7.0644043 5.78465576 -6.45693359 5.21384277 -5.83105469 4.62573242 C-3.96139153 2.96572082 -2.01983205 1.47198185 0 0 Z " fill="#E02F1D" transform="translate(331,188)"/>
<path d="M0 0 C3.32006187 1.10668729 4.0582597 1.94572595 6.25 4.5625 C9.33883561 8.2177319 12.50103337 11.7901511 15.71484375 15.3359375 C17 17 17 17 17 19 C13.15225136 17.71741712 12.11143336 15.92380914 9.625 12.75 C7.25830522 9.74080045 4.94729284 6.94832631 2.2109375 4.265625 C0 2 0 2 0 0 Z " fill="#D62D1C" transform="translate(255,185)"/>
<path d="M0 0 C1.32 0.33 2.64 0.66 4 1 C3.01 1 2.02 1 1 1 C2.63412443 2.70840281 3.86906094 3.93453047 6 5 C6.33 4.34 6.66 3.68 7 3 C7.33 4.32 7.66 5.64 8 7 C5 9 5 9 2.3125 8.625 C1.549375 8.41875 0.78625 8.2125 0 8 C0 5.36 0 2.72 0 0 Z " fill="#E5E5E5" transform="translate(200,107)"/>
<path d="M0 0 C3 1 3 1 4.1875 3.375 C5 6 5 6 5 9 C4.34 9 3.68 9 3 9 C3 8.34 3 7.68 3 7 C1.68 7 0.36 7 -1 7 C-1 7.66 -1 8.32 -1 9 C-1.66 9 -2.32 9 -3 9 C-2.01 6.03 -1.02 3.06 0 0 Z " fill="#D1D1D1" transform="translate(249,97)"/>
<path d="M0 0 C0.33 0 0.66 0 1 0 C1 1.65 1 3.3 1 5 C2.32 5 3.64 5 5 5 C5.33 4.01 5.66 3.02 6 2 C7.25541557 5.76624671 6.37061958 7.37188934 5 11 C4.34 11 3.68 11 3 11 C3.33 9.68 3.66 8.36 4 7 C2.68 7 1.36 7 0 7 C-0.33 7.66 -0.66 8.32 -1 9 C-1.66 8.67 -2.32 8.34 -3 8 C-2.01 5.36 -1.02 2.72 0 0 Z " fill="#C5C5C5" transform="translate(285,102)"/>
<path d="M0 0 C0.598125 0.20625 1.19625 0.4125 1.8125 0.625 C1.1525 1.285 0.4925 1.945 -0.1875 2.625 C0.4725 2.625 1.1325 2.625 1.8125 2.625 C1.1525 3.945 0.4925 5.265 -0.1875 6.625 C-1.5075 6.295 -2.8275 5.965 -4.1875 5.625 C-4.5175 4.305 -4.8475 2.985 -5.1875 1.625 C-2.1875 -0.375 -2.1875 -0.375 0 0 Z " fill="#1C1C1C" transform="translate(164.1875,137.375)"/>
<path d="M0 0 C0.66 0 1.32 0 2 0 C2.33 2.97 2.66 5.94 3 9 C2.34 8.67 1.68 8.34 1 8 C1 7.34 1 6.68 1 6 C-0.32 6 -1.64 6 -3 6 C-3.33 7.32 -3.66 8.64 -4 10 C-5.35439668 7.29120665 -5.06501451 4.99066732 -5 2 C-4.67 2.99 -4.34 3.98 -4 5 C-2.35 4.67 -0.7 4.34 1 4 C0.67 2.68 0.34 1.36 0 0 Z " fill="#CECECE" transform="translate(225,99)"/>
<path d="M0 0 C0.66 0 1.32 0 2 0 C2.309375 1.093125 2.61875 2.18625 2.9375 3.3125 C3.58337897 5.55407994 4.2623117 7.7869351 5 10 C4.01 9.67 3.02 9.34 2 9 C2 8.34 2 7.68 2 7 C-0.31 6.67 -2.62 6.34 -5 6 C-4.67 5.34 -4.34 4.68 -4 4 C-2.02 4.495 -2.02 4.495 0 5 C0 3.35 0 1.7 0 0 Z " fill="#ACACAC" transform="translate(171,125)"/>
<path d="M0 0 C2.31 0.33 4.62 0.66 7 1 C7 1.66 7 2.32 7 3 C6.01 3 5.02 3 4 3 C3.67 5.31 3.34 7.62 3 10 C2.34 10 1.68 10 1 10 C1.33 7.36 1.66 4.72 2 2 C1.34 2 0.68 2 0 2 C0 1.34 0 0.68 0 0 Z " fill="#B0B0B0" transform="translate(272,99)"/>
<path d="M0 0 C3.38370684 3.38370684 3.05529986 7.2332093 3.0625 11.8125 C3.04655989 13.20839779 3.02736707 14.60427948 3 16 C0.16402743 10.42028161 -0.10375377 6.22522631 0 0 Z " fill="#D32C1C" transform="translate(284,180)"/>
<path d="M0 0 C1.98 0.495 1.98 0.495 4 1 C3.125 5.875 3.125 5.875 2 7 C2.66 7.66 3.32 8.32 4 9 C2.35 9 0.7 9 -1 9 C-0.690625 8.401875 -0.38125 7.80375 -0.0625 7.1875 C1.10209704 4.91043228 1.10209704 4.91043228 2 2 C1.01 2.33 0.02 2.66 -1 3 C-0.67 2.01 -0.34 1.02 0 0 Z " fill="#C9C9C9" transform="translate(349,216)"/>
<path d="M0 0 C0.66 0 1.32 0 2 0 C2 2.64 2 5.28 2 8 C1.67 7.34 1.34 6.68 1 6 C-0.32 6 -1.64 6 -3 6 C-2 4 -1 2 0 0 Z " fill="#BEBEBE" transform="translate(363,233)"/>
<path d="M0 0 C0.66 1.32 1.32 2.64 2 4 C0.02 4.99 0.02 4.99 -2 6 C-2.99 5.34 -3.98 4.68 -5 4 C-5 3.34 -5 2.68 -5 2 C-3.35 2 -1.7 2 0 2 C0 1.34 0 0.68 0 0 Z " fill="#8C8C8C" transform="translate(206,110)"/>
<path d="M0 0 C0.99 0.33 1.98 0.66 3 1 C3.6875 3.0625 3.6875 3.0625 4 5 C2.68 5.33 1.36 5.66 0 6 C-1.125 2.25 -1.125 2.25 0 0 Z " fill="#A1A1A1" transform="translate(249,97)"/>
<path d="M0 0 C0.33 0 0.66 0 1 0 C1 1.65 1 3.3 1 5 C1.66 5.33 2.32 5.66 3 6 C2.01 6.33 1.02 6.66 0 7 C-0.33 7.66 -0.66 8.32 -1 9 C-1.66 8.67 -2.32 8.34 -3 8 C-2.01 5.36 -1.02 2.72 0 0 Z " fill="#D0D0D0" transform="translate(285,102)"/>
<path d="M0 0 C0.99 0 1.98 0 3 0 C3 1.65 3 3.3 3 5 C2.01 5.33 1.02 5.66 0 6 C0 4.02 0 2.04 0 0 Z " fill="#0E0E0E" transform="translate(362,218)"/>
<path d="M0 0 C0.99 0.33 1.98 0.66 3 1 C-0.465 3.97 -0.465 3.97 -4 7 C-4.66 6.67 -5.32 6.34 -6 6 C-4.02 4.02 -2.04 2.04 0 0 Z " fill="#D02B1B" transform="translate(318,199)"/>
</svg>
